<svg width="12" height="6" viewBox="0 0 12 6" fill="none" xmlns="http://www.w3.org/2000/svg">
<path d="M1.25137 5.76746V1.24214L4.68319 3.82514V5.76746H5.55956V3.64345C5.5595 3.56422 5.54102 3.48608 5.50558 3.41521C5.47015 3.34434 5.41872 3.28267 5.35537 3.23508L1.19344 0.102517C1.11756 0.0455082 1.02731 0.0107447 0.932791 0.00211721C0.838275 -0.0065103 0.743223 0.0113387 0.658275 0.0536666C0.573327 0.0959945 0.501837 0.161131 0.451807 0.241783C0.401777 0.322435 0.375183 0.41542 0.375 0.510329V5.76746H1.25137ZM10.743 5.76746V1.24214L7.31119 3.82514V5.76746H6.43481V3.64345C6.43481 3.48258 6.51019 3.33127 6.63844 3.23508L10.8009 0.102517C10.8769 0.0454797 10.9672 0.0107106 11.0617 0.00210487C11.1563 -0.00650085 11.2514 0.0113967 11.3364 0.0537927C11.4213 0.0961886 11.4928 0.161408 11.5428 0.242142C11.5928 0.322876 11.6193 0.415935 11.6194 0.510892V5.76802H10.743V5.76746Z" fill="white"/>
</svg>
